<?xml version="1.0" encoding="utf-8" standalone="no"?>
<!DOCTYPE svg PUBLIC "-//W3C//DTD SVG 1.1//EN"
  "http://www.w3.org/Graphics/SVG/1.1/DTD/svg11.dtd">
<!-- Created with matplotlib (https://matplotlib.org/) -->
<svg height="288pt" version="1.1" viewBox="0 0 432 288" width="432pt" xmlns="http://www.w3.org/2000/svg" xmlns:xlink="http://www.w3.org/1999/xlink">
 <defs>
  <style type="text/css">
*{stroke-linecap:butt;stroke-linejoin:round;}
  </style>
 </defs>
 <g id="figure_1">
  <g id="patch_1">
   <path d="M 0 288 
L 432 288 
L 432 0 
L 0 0 
z
" style="fill:#ffffff;"/>
  </g>
  <g id="axes_1">
   <g id="patch_2">
    <path d="M 54 230.4 
L 388.8 230.4 
L 388.8 34.56 
L 54 34.56 
z
" style="fill:#ffffff;"/>
   </g>
   <g id="matplotlib.axis_1">
    <g id="xtick_1">
     <g id="line2d_1">
      <defs>
       <path d="M 0 0 
L 0 3.5 
" id="ma1968d61bd" style="stroke:#000000;stroke-width:0.8;"/>
      </defs>
      <g>
       <use style="stroke:#000000;stroke-width:0.8;" x="54" xlink:href="#ma1968d61bd" y="230.4"/>
      </g>
     </g>
     <g id="text_1">
      <!-- 2007-01 -->
      <defs>
       <path d="M 19.1875 8.296875 
L 53.609375 8.296875 
L 53.609375 0 
L 7.328125 0 
L 7.328125 8.296875 
Q 12.9375 14.109375 22.625 23.890625 
Q 32.328125 33.6875 34.8125 36.53125 
Q 39.546875 41.84375 41.421875 45.53125 
Q 43.3125 49.21875 43.3125 52.78125 
Q 43.3125 58.59375 39.234375 62.25 
Q 35.15625 65.921875 28.609375 65.921875 
Q 23.96875 65.921875 18.8125 64.3125 
Q 13.671875 62.703125 7.8125 59.421875 
L 7.8125 69.390625 
Q 13.765625 71.78125 18.9375 73 
Q 24.125 74.21875 28.421875 74.21875 
Q 39.75 74.21875 46.484375 68.546875 
Q 53.21875 62.890625 53.21875 53.421875 
Q 53.21875 48.921875 51.53125 44.890625 
Q 49.859375 40.875 45.40625 35.40625 
Q 44.1875 33.984375 37.640625 27.21875 
Q 31.109375 20.453125 19.1875 8.296875 
z
" id="DejaVuSans-50"/>
       <path d="M 31.78125 66.40625 
Q 24.171875 66.40625 20.328125 58.90625 
Q 16.5 51.421875 16.5 36.375 
Q 16.5 21.390625 20.328125 13.890625 
Q 24.171875 6.390625 31.78125 6.390625 
Q 39.453125 6.390625 43.28125 13.890625 
Q 47.125 21.390625 47.125 36.375 
Q 47.125 51.421875 43.28125 58.90625 
Q 39.453125 66.40625 31.78125 66.40625 
z
M 31.78125 74.21875 
Q 44.046875 74.21875 50.515625 64.515625 
Q 56.984375 54.828125 56.984375 36.375 
Q 56.984375 17.96875 50.515625 8.265625 
Q 44.046875 -1.421875 31.78125 -1.421875 
Q 19.53125 -1.421875 13.0625 8.265625 
Q 6.59375 17.96875 6.59375 36.375 
Q 6.59375 54.828125 13.0625 64.515625 
Q 19.53125 74.21875 31.78125 74.21875 
z
" id="DejaVuSans-48"/>
       <path d="M 8.203125 72.90625 
L 55.078125 72.90625 
L 55.078125 68.703125 
L 28.609375 0 
L 18.3125 0 
L 43.21875 64.59375 
L 8.203125 64.59375 
z
" id="DejaVuSans-55"/>
       <path d="M 4.890625 31.390625 
L 31.203125 31.390625 
L 31.203125 23.390625 
L 4.890625 23.390625 
z
" id="DejaVuSans-45"/>
       <path d="M 12.40625 8.296875 
L 28.515625 8.296875 
L 28.515625 63.921875 
L 10.984375 60.40625 
L 10.984375 69.390625 
L 28.421875 72.90625 
L 38.28125 72.90625 
L 38.28125 8.296875 
L 54.390625 8.296875 
L 54.390625 0 
L 12.40625 0 
z
" id="DejaVuSans-49"/>
      </defs>
      <g transform="translate(16.775179 264.871846)rotate(-30)scale(0.1 -0.1)">
       <use xlink:href="#DejaVuSans-50"/>
       <use x="63.623047" xlink:href="#DejaVuSans-48"/>
       <use x="127.246094" xlink:href="#DejaVuSans-48"/>
       <use x="190.869141" xlink:href="#DejaVuSans-55"/>
       <use x="254.492188" xlink:href="#DejaVuSans-45"/>
       <use x="290.576172" xlink:href="#DejaVuSans-48"/>
       <use x="354.199219" xlink:href="#DejaVuSans-49"/>
      </g>
     </g>
    </g>
    <g id="xtick_2">
     <g id="line2d_2">
      <g>
       <use style="stroke:#000000;stroke-width:0.8;" x="95.477618" xlink:href="#ma1968d61bd" y="230.4"/>
      </g>
     </g>
     <g id="text_2">
      <!-- 2007-07 -->
      <g transform="translate(58.252797 264.871846)rotate(-30)scale(0.1 -0.1)">
       <use xlink:href="#DejaVuSans-50"/>
       <use x="63.623047" xlink:href="#DejaVuSans-48"/>
       <use x="127.246094" xlink:href="#DejaVuSans-48"/>
       <use x="190.869141" xlink:href="#DejaVuSans-55"/>
       <use x="254.492188" xlink:href="#DejaVuSans-45"/>
       <use x="290.576172" xlink:href="#DejaVuSans-48"/>
       <use x="354.199219" xlink:href="#DejaVuSans-55"/>
      </g>
     </g>
    </g>
    <g id="xtick_3">
     <g id="line2d_3">
      <g>
       <use style="stroke:#000000;stroke-width:0.8;" x="137.64271" xlink:href="#ma1968d61bd" y="230.4"/>
      </g>
     </g>
     <g id="text_3">
      <!-- 2008-01 -->
      <defs>
       <path d="M 31.78125 34.625 
Q 24.75 34.625 20.71875 30.859375 
Q 16.703125 27.09375 16.703125 20.515625 
Q 16.703125 13.921875 20.71875 10.15625 
Q 24.75 6.390625 31.78125 6.390625 
Q 38.8125 6.390625 42.859375 10.171875 
Q 46.921875 13.96875 46.921875 20.515625 
Q 46.921875 27.09375 42.890625 30.859375 
Q 38.875 34.625 31.78125 34.625 
z
M 21.921875 38.8125 
Q 15.578125 40.375 12.03125 44.71875 
Q 8.5 49.078125 8.5 55.328125 
Q 8.5 64.0625 14.71875 69.140625 
Q 20.953125 74.21875 31.78125 74.21875 
Q 42.671875 74.21875 48.875 69.140625 
Q 55.078125 64.0625 55.078125 55.328125 
Q 55.078125 49.078125 51.53125 44.71875 
Q 48 40.375 41.703125 38.8125 
Q 48.828125 37.15625 52.796875 32.3125 
Q 56.78125 27.484375 56.78125 20.515625 
Q 56.78125 9.90625 50.3125 4.234375 
Q 43.84375 -1.421875 31.78125 -1.421875 
Q 19.734375 -1.421875 13.25 4.234375 
Q 6.78125 9.90625 6.78125 20.515625 
Q 6.78125 27.484375 10.78125 32.3125 
Q 14.796875 37.15625 21.921875 38.8125 
z
M 18.3125 54.390625 
Q 18.3125 48.734375 21.84375 45.5625 
Q 25.390625 42.390625 31.78125 42.390625 
Q 38.140625 42.390625 41.71875 45.5625 
Q 45.3125 48.734375 45.3125 54.390625 
Q 45.3125 60.0625 41.71875 63.234375 
Q 38.140625 66.40625 31.78125 66.40625 
Q 25.390625 66.40625 21.84375 63.234375 
Q 18.3125 60.0625 18.3125 54.390625 
z
" id="DejaVuSans-56"/>
      </defs>
      <g transform="translate(100.41789 264.871846)rotate(-30)scale(0.1 -0.1)">
       <use xlink:href="#DejaVuSans-50"/>
       <use x="63.623047" xlink:href="#DejaVuSans-48"/>
       <use x="127.246094" xlink:href="#DejaVuSans-48"/>
       <use x="190.869141" xlink:href="#DejaVuSans-56"/>
       <use x="254.492188" xlink:href="#DejaVuSans-45"/>
       <use x="290.576172" xlink:href="#DejaVuSans-48"/>
       <use x="354.199219" xlink:href="#DejaVuSans-49"/>
      </g>
     </g>
    </g>
    <g id="xtick_4">
     <g id="line2d_4">
      <g>
       <use style="stroke:#000000;stroke-width:0.8;" x="179.349487" xlink:href="#ma1968d61bd" y="230.4"/>
      </g>
     </g>
     <g id="text_4">
      <!-- 2008-07 -->
      <g transform="translate(142.124666 264.871846)rotate(-30)scale(0.1 -0.1)">
       <use xlink:href="#DejaVuSans-50"/>
       <use x="63.623047" xlink:href="#DejaVuSans-48"/>
       <use x="127.246094" xlink:href="#DejaVuSans-48"/>
       <use x="190.869141" xlink:href="#DejaVuSans-56"/>
       <use x="254.492188" xlink:href="#DejaVuSans-45"/>
       <use x="290.576172" xlink:href="#DejaVuSans-48"/>
       <use x="354.199219" xlink:href="#DejaVuSans-55"/>
      </g>
     </g>
    </g>
    <g id="xtick_5">
     <g id="line2d_5">
      <g>
       <use style="stroke:#000000;stroke-width:0.8;" x="221.514579" xlink:href="#ma1968d61bd" y="230.4"/>
      </g>
     </g>
     <g id="text_5">
      <!-- 2009-01 -->
      <defs>
       <path d="M 10.984375 1.515625 
L 10.984375 10.5 
Q 14.703125 8.734375 18.5 7.8125 
Q 22.3125 6.890625 25.984375 6.890625 
Q 35.75 6.890625 40.890625 13.453125 
Q 46.046875 20.015625 46.78125 33.40625 
Q 43.953125 29.203125 39.59375 26.953125 
Q 35.25 24.703125 29.984375 24.703125 
Q 19.046875 24.703125 12.671875 31.3125 
Q 6.296875 37.9375 6.296875 49.421875 
Q 6.296875 60.640625 12.9375 67.421875 
Q 19.578125 74.21875 30.609375 74.21875 
Q 43.265625 74.21875 49.921875 64.515625 
Q 56.59375 54.828125 56.59375 36.375 
Q 56.59375 19.140625 48.40625 8.859375 
Q 40.234375 -1.421875 26.421875 -1.421875 
Q 22.703125 -1.421875 18.890625 -0.6875 
Q 15.09375 0.046875 10.984375 1.515625 
z
M 30.609375 32.421875 
Q 37.25 32.421875 41.125 36.953125 
Q 45.015625 41.5 45.015625 49.421875 
Q 45.015625 57.28125 41.125 61.84375 
Q 37.25 66.40625 30.609375 66.40625 
Q 23.96875 66.40625 20.09375 61.84375 
Q 16.21875 57.28125 16.21875 49.421875 
Q 16.21875 41.5 20.09375 36.953125 
Q 23.96875 32.421875 30.609375 32.421875 
z
" id="DejaVuSans-57"/>
      </defs>
      <g transform="translate(184.289758 264.871846)rotate(-30)scale(0.1 -0.1)">
       <use xlink:href="#DejaVuSans-50"/>
       <use x="63.623047" xlink:href="#DejaVuSans-48"/>
       <use x="127.246094" xlink:href="#DejaVuSans-48"/>
       <use x="190.869141" xlink:href="#DejaVuSans-57"/>
       <use x="254.492188" xlink:href="#DejaVuSans-45"/>
       <use x="290.576172" xlink:href="#DejaVuSans-48"/>
       <use x="354.199219" xlink:href="#DejaVuSans-49"/>
      </g>
     </g>
    </g>
    <g id="xtick_6">
     <g id="line2d_6">
      <g>
       <use style="stroke:#000000;stroke-width:0.8;" x="262.992197" xlink:href="#ma1968d61bd" y="230.4"/>
      </g>
     </g>
     <g id="text_6">
      <!-- 2009-07 -->
      <g transform="translate(225.767376 264.871846)rotate(-30)scale(0.1 -0.1)">
       <use xlink:href="#DejaVuSans-50"/>
       <use x="63.623047" xlink:href="#DejaVuSans-48"/>
       <use x="127.246094" xlink:href="#DejaVuSans-48"/>
       <use x="190.869141" xlink:href="#DejaVuSans-57"/>
       <use x="254.492188" xlink:href="#DejaVuSans-45"/>
       <use x="290.576172" xlink:href="#DejaVuSans-48"/>
       <use x="354.199219" xlink:href="#DejaVuSans-55"/>
      </g>
     </g>
    </g>
    <g id="xtick_7">
     <g id="line2d_7">
      <g>
       <use style="stroke:#000000;stroke-width:0.8;" x="305.15729" xlink:href="#ma1968d61bd" y="230.4"/>
      </g>
     </g>
     <g id="text_7">
      <!-- 2010-01 -->
      <g transform="translate(267.932469 264.871846)rotate(-30)scale(0.1 -0.1)">
       <use xlink:href="#DejaVuSans-50"/>
       <use x="63.623047" xlink:href="#DejaVuSans-48"/>
       <use x="127.246094" xlink:href="#DejaVuSans-49"/>
       <use x="190.869141" xlink:href="#DejaVuSans-48"/>
       <use x="254.492188" xlink:href="#DejaVuSans-45"/>
       <use x="290.576172" xlink:href="#DejaVuSans-48"/>
       <use x="354.199219" xlink:href="#DejaVuSans-49"/>
      </g>
     </g>
    </g>
    <g id="xtick_8">
     <g id="line2d_8">
      <g>
       <use style="stroke:#000000;stroke-width:0.8;" x="346.634908" xlink:href="#ma1968d61bd" y="230.4"/>
      </g>
     </g>
     <g id="text_8">
      <!-- 2010-07 -->
      <g transform="translate(309.410087 264.871846)rotate(-30)scale(0.1 -0.1)">
       <use xlink:href="#DejaVuSans-50"/>
       <use x="63.623047" xlink:href="#DejaVuSans-48"/>
       <use x="127.246094" xlink:href="#DejaVuSans-49"/>
       <use x="190.869141" xlink:href="#DejaVuSans-48"/>
       <use x="254.492188" xlink:href="#DejaVuSans-45"/>
       <use x="290.576172" xlink:href="#DejaVuSans-48"/>
       <use x="354.199219" xlink:href="#DejaVuSans-55"/>
      </g>
     </g>
    </g>
    <g id="xtick_9">
     <g id="line2d_9">
      <g>
       <use style="stroke:#000000;stroke-width:0.8;" x="388.8" xlink:href="#ma1968d61bd" y="230.4"/>
      </g>
     </g>
     <g id="text_9">
      <!-- 2011-01 -->
      <g transform="translate(351.575179 264.871846)rotate(-30)scale(0.1 -0.1)">
       <use xlink:href="#DejaVuSans-50"/>
       <use x="63.623047" xlink:href="#DejaVuSans-48"/>
       <use x="127.246094" xlink:href="#DejaVuSans-49"/>
       <use x="190.869141" xlink:href="#DejaVuSans-49"/>
       <use x="254.492188" xlink:href="#DejaVuSans-45"/>
       <use x="290.576172" xlink:href="#DejaVuSans-48"/>
       <use x="354.199219" xlink:href="#DejaVuSans-49"/>
      </g>
     </g>
    </g>
   </g>
   <g id="matplotlib.axis_2">
    <g id="ytick_1">
     <g id="line2d_10">
      <defs>
       <path d="M 0 0 
L -3.5 0 
" id="m8e8a8c212d" style="stroke:#000000;stroke-width:0.8;"/>
      </defs>
      <g>
       <use style="stroke:#000000;stroke-width:0.8;" x="54" xlink:href="#m8e8a8c212d" y="230.4"/>
      </g>
     </g>
     <g id="text_10">
      <!-- 600 -->
      <defs>
       <path d="M 33.015625 40.375 
Q 26.375 40.375 22.484375 35.828125 
Q 18.609375 31.296875 18.609375 23.390625 
Q 18.609375 15.53125 22.484375 10.953125 
Q 26.375 6.390625 33.015625 6.390625 
Q 39.65625 6.390625 43.53125 10.953125 
Q 47.40625 15.53125 47.40625 23.390625 
Q 47.40625 31.296875 43.53125 35.828125 
Q 39.65625 40.375 33.015625 40.375 
z
M 52.59375 71.296875 
L 52.59375 62.3125 
Q 48.875 64.0625 45.09375 64.984375 
Q 41.3125 65.921875 37.59375 65.921875 
Q 27.828125 65.921875 22.671875 59.328125 
Q 17.53125 52.734375 16.796875 39.40625 
Q 19.671875 43.65625 24.015625 45.921875 
Q 28.375 48.1875 33.59375 48.1875 
Q 44.578125 48.1875 50.953125 41.515625 
Q 57.328125 34.859375 57.328125 23.390625 
Q 57.328125 12.15625 50.6875 5.359375 
Q 44.046875 -1.421875 33.015625 -1.421875 
Q 20.359375 -1.421875 13.671875 8.265625 
Q 6.984375 17.96875 6.984375 36.375 
Q 6.984375 53.65625 15.1875 63.9375 
Q 23.390625 74.21875 37.203125 74.21875 
Q 40.921875 74.21875 44.703125 73.484375 
Q 48.484375 72.75 52.59375 71.296875 
z
" id="DejaVuSans-54"/>
      </defs>
      <g transform="translate(27.9125 234.199219)scale(0.1 -0.1)">
       <use xlink:href="#DejaVuSans-54"/>
       <use x="63.623047" xlink:href="#DejaVuSans-48"/>
       <use x="127.246094" xlink:href="#DejaVuSans-48"/>
      </g>
     </g>
    </g>
    <g id="ytick_2">
     <g id="line2d_11">
      <g>
       <use style="stroke:#000000;stroke-width:0.8;" x="54" xlink:href="#m8e8a8c212d" y="197.76"/>
      </g>
     </g>
     <g id="text_11">
      <!-- 800 -->
      <g transform="translate(27.9125 201.559219)scale(0.1 -0.1)">
       <use xlink:href="#DejaVuSans-56"/>
       <use x="63.623047" xlink:href="#DejaVuSans-48"/>
       <use x="127.246094" xlink:href="#DejaVuSans-48"/>
      </g>
     </g>
    </g>
    <g id="ytick_3">
     <g id="line2d_12">
      <g>
       <use style="stroke:#000000;stroke-width:0.8;" x="54" xlink:href="#m8e8a8c212d" y="165.12"/>
      </g>
     </g>
     <g id="text_12">
      <!-- 1000 -->
      <g transform="translate(21.55 168.919219)scale(0.1 -0.1)">
       <use xlink:href="#DejaVuSans-49"/>
       <use x="63.623047" xlink:href="#DejaVuSans-48"/>
       <use x="127.246094" xlink:href="#DejaVuSans-48"/>
       <use x="190.869141" xlink:href="#DejaVuSans-48"/>
      </g>
     </g>
    </g>
    <g id="ytick_4">
     <g id="line2d_13">
      <g>
       <use style="stroke:#000000;stroke-width:0.8;" x="54" xlink:href="#m8e8a8c212d" y="132.48"/>
      </g>
     </g>
     <g id="text_13">
      <!-- 1200 -->
      <g transform="translate(21.55 136.279219)scale(0.1 -0.1)">
       <use xlink:href="#DejaVuSans-49"/>
       <use x="63.623047" xlink:href="#DejaVuSans-50"/>
       <use x="127.246094" xlink:href="#DejaVuSans-48"/>
       <use x="190.869141" xlink:href="#DejaVuSans-48"/>
      </g>
     </g>
    </g>
    <g id="ytick_5">
     <g id="line2d_14">
      <g>
       <use style="stroke:#000000;stroke-width:0.8;" x="54" xlink:href="#m8e8a8c212d" y="99.84"/>
      </g>
     </g>
     <g id="text_14">
      <!-- 1400 -->
      <defs>
       <path d="M 37.796875 64.3125 
L 12.890625 25.390625 
L 37.796875 25.390625 
z
M 35.203125 72.90625 
L 47.609375 72.90625 
L 47.609375 25.390625 
L 58.015625 25.390625 
L 58.015625 17.1875 
L 47.609375 17.1875 
L 47.609375 0 
L 37.796875 0 
L 37.796875 17.1875 
L 4.890625 17.1875 
L 4.890625 26.703125 
z
" id="DejaVuSans-52"/>
      </defs>
      <g transform="translate(21.55 103.639219)scale(0.1 -0.1)">
       <use xlink:href="#DejaVuSans-49"/>
       <use x="63.623047" xlink:href="#DejaVuSans-52"/>
       <use x="127.246094" xlink:href="#DejaVuSans-48"/>
       <use x="190.869141" xlink:href="#DejaVuSans-48"/>
      </g>
     </g>
    </g>
    <g id="ytick_6">
     <g id="line2d_15">
      <g>
       <use style="stroke:#000000;stroke-width:0.8;" x="54" xlink:href="#m8e8a8c212d" y="67.2"/>
      </g>
     </g>
     <g id="text_15">
      <!-- 1600 -->
      <g transform="translate(21.55 70.999219)scale(0.1 -0.1)">
       <use xlink:href="#DejaVuSans-49"/>
       <use x="63.623047" xlink:href="#DejaVuSans-54"/>
       <use x="127.246094" xlink:href="#DejaVuSans-48"/>
       <use x="190.869141" xlink:href="#DejaVuSans-48"/>
      </g>
     </g>
    </g>
    <g id="ytick_7">
     <g id="line2d_16">
      <g>
       <use style="stroke:#000000;stroke-width:0.8;" x="54" xlink:href="#m8e8a8c212d" y="34.56"/>
      </g>
     </g>
     <g id="text_16">
      <!-- 1800 -->
      <g transform="translate(21.55 38.359219)scale(0.1 -0.1)">
       <use xlink:href="#DejaVuSans-49"/>
       <use x="63.623047" xlink:href="#DejaVuSans-56"/>
       <use x="127.246094" xlink:href="#DejaVuSans-48"/>
       <use x="190.869141" xlink:href="#DejaVuSans-48"/>
      </g>
     </g>
    </g>
   </g>
   <g id="line2d_17">
    <path clip-path="url(#p8f1dea702e)" d="M 53.312526 96.85344 
L 54.458316 97.13088 
L 54.687474 96.846912 
L 54.916632 98.255328 
L 55.604107 97.744512 
L 55.833265 97.863648 
L 56.062423 97.41648 
L 56.520739 94.824864 
L 57.437372 94.63392 
L 57.66653 94.842816 
L 57.895688 95.536416 
L 58.124846 94.8624 
L 58.81232 96.09456 
L 59.041478 95.272032 
L 59.270637 93.290784 
L 59.499795 95.93952 
L 59.728953 96.220224 
L 60.416427 96.474816 
L 61.103901 92.342592 
L 61.33306 91.942752 
L 62.020534 92.171232 
L 62.249692 92.0064 
L 62.47885 91.676736 
L 62.708008 91.955808 
L 62.937166 93.628608 
L 63.624641 94.394016 
L 64.082957 90.81504 
L 64.312115 90.568608 
L 64.541273 90.775872 
L 65.457906 90.100224 
L 65.916222 90.638784 
L 66.14538 91.485792 
L 66.832854 91.782816 
L 67.062012 99.996672 
L 67.29117 98.726976 
L 67.520329 99.322656 
L 67.749487 101.933856 
L 68.436961 104.063616 
L 68.666119 100.589088 
L 68.895277 101.150496 
L 69.124435 99.531552 
L 69.353593 99.376512 
L 70.041068 98.76288 
L 70.270226 103.43856 
L 70.728542 101.099904 
L 70.9577 101.96976 
L 71.645175 99.503808 
L 71.874333 98.054592 
L 72.103491 94.121472 
L 72.332649 94.203072 
L 72.561807 93.946848 
L 73.249281 93.72 
L 73.707598 97.028064 
L 73.936756 96.163104 
L 74.165914 96.435648 
L 74.853388 95.83344 
L 75.082546 93.675936 
L 75.311704 93.414816 
L 75.540862 92.698368 
L 76.457495 92.559648 
L 76.686653 91.942752 
L 76.915811 93.496416 
L 77.374127 91.21488 
L 78.29076 88.174464 
L 78.519918 88.008 
L 78.749076 88.296864 
L 78.978234 86.07408 
L 79.894867 86.717088 
L 80.124025 84.267456 
L 80.353183 84.4584 
L 80.582341 84.487776 
L 81.269815 86.397216 
L 81.498973 85.75584 
L 81.95729 83.129952 
L 82.186448 82.602816 
L 82.873922 81.972864 
L 83.10308 82.260096 
L 83.332238 81.466944 
L 83.561396 84.912096 
L 83.790554 82.56528 
L 84.478029 83.00592 
L 84.707187 83.325792 
L 84.936345 81.212352 
L 85.165503 81.4392 
L 85.394661 79.8072 
L 86.082136 79.42368 
L 86.311294 79.583616 
L 86.540452 79.883904 
L 86.76961 82.294368 
L 86.998768 80.952864 
L 87.9154 80.564448 
L 88.144559 78.586464 
L 88.373717 78.522816 
L 88.602875 77.589312 
L 89.290349 77.125824 
L 89.519507 78.46896 
L 89.748665 80.683584 
L 89.977823 85.034496 
L 90.206982 82.268256 
L 90.894456 82.031616 
L 91.123614 84.6624 
L 91.352772 80.962656 
L 91.811088 78.149088 
L 92.498563 78.45264 
L 92.727721 78.02016 
L 92.956879 81.424512 
L 93.186037 79.898592 
L 93.415195 83.102208 
L 94.102669 83.888832 
L 94.331828 84.680352 
L 94.560986 82.485312 
L 94.790144 82.588128 
L 95.019302 82.97328 
L 95.935934 79.461216 
L 96.394251 79.37472 
L 96.623409 78.552192 
L 97.310883 78.32208 
L 97.540041 81.868416 
L 97.769199 80.458368 
L 97.998357 75.73536 
L 98.227515 74.952 
L 98.91499 75.438336 
L 99.144148 75.462816 
L 99.373306 75.985056 
L 99.602464 74.857344 
L 99.831622 77.95488 
L 100.519097 76.735776 
L 100.748255 81.718272 
L 100.977413 80.567712 
L 101.435729 90.21936 
L 102.123203 87.777888 
L 102.352361 90.819936 
L 102.810678 88.05696 
L 103.039836 94.444608 
L 103.956468 87.320928 
L 104.185626 83.929632 
L 104.414784 91.175712 
L 104.643943 91.085952 
L 105.331417 91.203456 
L 105.789733 98.74656 
L 106.018891 98.000736 
L 106.248049 92.342592 
L 106.935524 92.40624 
L 107.164682 92.150016 
L 107.39384 89.383776 
L 107.622998 89.64 
L 107.852156 86.886816 
L 108.53963 88.939872 
L 108.768789 94.558848 
L 108.997947 89.434368 
L 109.227105 90.433152 
L 109.456263 87.764832 
L 110.372895 85.246656 
L 110.602053 88.042272 
L 110.831211 87.02064 
L 111.06037 91.10064 
L 111.747844 91.40256 
L 111.977002 88.172832 
L 112.20616 88.161408 
L 112.435318 86.13936 
L 112.664476 86.0904 
L 113.351951 87.33072 
L 113.581109 80.291904 
L 113.810267 78.782304 
L 114.039425 80.46 
L 114.268583 79.3176 
L 114.956057 80.626464 
L 115.185216 80.711328 
L 115.643532 78.398784 
L 115.87269 79.1544 
L 116.560164 75.843072 
L 116.789322 75.909984 
L 117.01848 77.058912 
L 117.247639 76.528512 
L 117.476797 74.121312 
L 118.164271 74.938944 
L 118.393429 72.88752 
L 118.622587 73.324896 
L 118.851745 74.640288 
L 119.080903 73.43424 
L 119.768378 75.570528 
L 119.997536 77.231904 
L 120.226694 76.789632 
L 120.455852 76.978944 
L 120.68501 83.417184 
L 121.372485 82.486944 
L 121.601643 80.322912 
L 121.830801 80.928384 
L 122.059959 81.16992 
L 122.289117 77.762304 
L 122.976591 76.832064 
L 123.205749 78.457536 
L 123.434908 75.461184 
L 123.664066 82.142592 
L 123.893224 81.94512 
L 124.580698 83.165856 
L 124.809856 80.211936 
L 125.039014 87.498816 
L 125.268172 87.637536 
L 125.497331 91.07616 
L 126.184805 93.445824 
L 126.413963 86.61264 
L 126.643121 88.321344 
L 126.872279 91.49232 
L 127.101437 90.253632 
L 127.788912 94.410336 
L 128.01807 93.36096 
L 128.247228 97.103136 
L 128.705544 93.19776 
L 129.393018 98.661696 
L 129.622177 95.232864 
L 129.851335 88.575936 
L 130.080493 88.461696 
L 130.309651 86.597952 
L 130.997125 88.021056 
L 131.226283 89.592672 
L 131.6846 82.322112 
L 131.913758 82.759488 
L 132.601232 80.915328 
L 132.83039 87.16752 
L 133.059548 85.708512 
L 133.288706 85.411488 
L 133.517864 88.75056 
L 134.205339 92.34912 
L 134.434497 90.867264 
L 134.663655 91.1904 
L 134.892813 90.028416 
L 135.121971 86.056128 
L 135.809446 84.09936 
L 136.267762 83.901888 
L 136.49692 87.392736 
L 136.726078 87.030432 
L 137.413552 88.683648 
L 137.871869 92.143488 
L 138.101027 92.143488 
L 138.330185 97.941984 
L 139.017659 97.199424 
L 139.246817 101.440992 
L 139.705133 96.522144 
L 139.934292 99.673536 
L 140.621766 97.188 
L 140.850924 102.94896 
L 141.080082 104.21376 
L 141.30924 110.7336 
L 141.538398 112.048992 
L 142.455031 114.4464 
L 142.684189 109.86048 
L 142.913347 107.662176 
L 143.142505 111.164448 
L 144.059138 105.99264 
L 144.288296 107.051808 
L 144.746612 100.587456 
L 145.434086 102.970176 
L 145.663244 110.180352 
L 145.892402 111.84336 
L 146.121561 110.136288 
L 146.350719 111.053472 
L 147.038193 109.773984 
L 147.267351 108.186048 
L 147.496509 105.191328 
L 147.725667 108.186048 
L 147.954825 108.001632 
L 148.871458 108.199104 
L 149.100616 106.363104 
L 149.329774 109.219104 
L 149.558932 107.492448 
L 150.246407 104.44224 
L 150.475565 102.893472 
L 150.704723 103.100736 
L 150.933881 105.114624 
L 151.163039 111.161184 
L 151.850513 111.045312 
L 152.079671 111.7944 
L 152.30883 110.66016 
L 152.537988 115.451712 
L 152.767146 117.242016 
L 153.45462 120.506016 
L 153.683778 112.78992 
L 153.912936 114.728736 
L 154.142094 113.633664 
L 154.371253 118.095552 
L 155.058727 119.97888 
L 155.287885 111.143232 
L 155.517043 116.417856 
L 155.746201 111.343968 
L 156.891992 107.512032 
L 157.579466 113.676096 
L 158.26694 112.45536 
L 158.496099 104.706624 
L 158.725257 105.139104 
L 159.183573 104.67072 
L 159.871047 104.321472 
L 160.100205 105.463872 
L 160.329363 107.267232 
L 160.558522 106.27824 
L 160.78768 110.802144 
L 161.475154 111.538176 
L 161.704312 110.541024 
L 161.93347 105.599328 
L 162.162628 105.460608 
L 162.391786 101.418144 
L 163.079261 101.770656 
L 163.308419 103.766592 
L 163.537577 103.115424 
L 163.995893 100.192512 
L 164.683368 100.432416 
L 165.141684 102.191712 
L 165.370842 98.315712 
L 165.6 97.57152 
L 166.287474 98.617632 
L 166.516632 96.859968 
L 166.745791 101.052576 
L 166.974949 100.218624 
L 167.204107 101.752704 
L 167.891581 99.255744 
L 168.120739 99.343872 
L 168.349897 98.426688 
L 168.579055 95.993376 
L 168.808214 95.70288 
L 169.495688 95.493984 
L 169.724846 97.65312 
L 169.954004 101.356128 
L 170.183162 100.76208 
L 170.41232 103.768224 
L 171.328953 102.23088 
L 172.016427 99.777984 
L 172.703901 102.178656 
L 172.93306 103.48752 
L 173.162218 103.56096 
L 173.391376 99.17904 
L 173.620534 106.257024 
L 174.308008 106.080768 
L 174.537166 106.622592 
L 174.766324 110.368032 
L 174.995483 109.653216 
L 175.224641 106.363104 
L 175.912115 106.345152 
L 176.370431 109.989408 
L 176.599589 109.170144 
L 176.828747 113.233824 
L 177.516222 113.2224 
L 177.74538 113.827872 
L 177.974538 112.574496 
L 178.203696 118.90992 
L 178.432854 119.688384 
L 179.120329 119.424 
L 179.349487 118.622688 
L 179.578645 122.439936 
L 179.807803 122.21472 
L 180.724435 123.943008 
L 180.953593 120.45216 
L 181.182752 125.186592 
L 181.41191 123.766752 
L 181.641068 126.035232 
L 182.328542 127.86144 
L 182.5577 130.046688 
L 182.786858 125.077248 
L 183.016016 122.635776 
L 183.245175 122.577024 
L 183.932649 122.688 
L 184.161807 119.9136 
L 184.390965 119.066592 
L 184.620123 123.905472 
L 184.849281 123.053568 
L 185.536756 126.870816 
L 185.995072 118.728768 
L 186.22423 121.483584 
L 186.453388 122.637408 
L 187.140862 124.481568 
L 187.370021 118.627584 
L 187.599179 117.924192 
L 187.828337 121.697376 
L 188.057495 116.760576 
L 188.744969 115.291776 
L 188.974127 117.858912 
L 189.203285 118.472544 
L 189.661602 116.45376 
L 190.349076 119.65248 
L 190.578234 121.596192 
L 190.807392 120.315072 
L 191.03655 119.796096 
L 191.265708 117.43296 
L 191.953183 121.571712 
L 192.182341 120.809568 
L 192.411499 119.153088 
L 192.640657 116.049024 
L 192.869815 118.962144 
L 193.786448 119.818944 
L 194.015606 120.243264 
L 194.244764 126.469344 
L 194.473922 125.575008 
L 195.161396 121.416672 
L 195.390554 128.479968 
L 195.619713 127.251072 
L 195.848871 124.47504 
L 196.078029 124.04256 
L 196.765503 133.67136 
L 196.994661 130.26048 
L 197.223819 139.597152 
L 197.682136 123.490944 
L 198.598768 134.402496 
L 198.827926 134.786016 
L 199.057084 130.981824 
L 199.286242 130.314336 
L 199.973717 147.752256 
L 200.202875 137.970048 
L 200.432033 138.835008 
L 200.661191 146.469504 
L 201.577823 155.835552 
L 201.806982 165.735264 
L 202.03614 167.577792 
L 202.265298 179.821056 
L 202.494456 181.567296 
L 203.18193 164.57328 
L 203.411088 165.444768 
L 203.640246 180.160512 
L 203.869405 173.862624 
L 204.098563 174.82224 
L 204.786037 167.50272 
L 205.015195 172.45584 
L 205.244353 181.965504 
L 205.473511 180.116448 
L 205.702669 185.231136 
L 206.390144 189.776256 
L 206.619302 174.828768 
L 206.84846 176.529312 
L 207.306776 170.22 
L 207.994251 170.61984 
L 208.223409 164.1816 
L 208.681725 180.643584 
L 208.910883 176.382432 
L 209.598357 178.304928 
L 209.827515 181.61136 
L 210.056674 189.22464 
L 210.285832 179.597472 
L 210.51499 185.799072 
L 211.202464 189.4776 
L 211.431622 188.111616 
L 211.889938 205.521792 
L 212.119097 197.755104 
L 212.806571 189.304608 
L 213.035729 188.393952 
L 213.264887 183.450624 
L 213.723203 182.053632 
L 214.410678 195.114528 
L 214.868994 186.215232 
L 215.098152 190.380096 
L 215.32731 185.345376 
L 216.014784 179.85696 
L 216.243943 183.289056 
L 216.473101 181.564032 
L 216.702259 185.750112 
L 216.931417 184.748064 
L 217.618891 186.569376 
L 217.848049 179.289024 
L 218.077207 180.718656 
L 218.306366 183.842304 
L 218.535524 183.417984 
L 219.222998 186.069984 
L 219.452156 187.452288 
L 219.681314 186.63792 
L 220.13963 185.87904 
L 220.827105 186.430656 
L 221.285421 180.9096 
L 221.743737 176.25024 
L 222.431211 176.96016 
L 222.66037 175.77696 
L 222.889528 180.35472 
L 223.118686 179.852064 
L 223.347844 183.01488 
L 224.035318 186.293568 
L 224.264476 186.043872 
L 224.493634 190.804416 
L 224.722793 190.621632 
L 224.951951 189.580416 
L 225.868583 196.908096 
L 226.097741 191.192832 
L 226.326899 193.272 
L 226.556057 192.54576 
L 227.243532 191.791776 
L 227.47269 190.300128 
L 227.701848 185.668512 
L 228.160164 193.536384 
L 228.847639 193.608192 
L 229.076797 191.475168 
L 229.305955 192.500064 
L 229.535113 190.27728 
L 229.764271 186.56448 
L 230.451745 186.353952 
L 230.680903 193.327488 
L 230.910062 192.253632 
L 231.13922 192.016992 
L 231.368378 193.379712 
L 232.28501 199.527456 
L 232.514168 199.649856 
L 233.659959 207.008544 
L 233.889117 202.143552 
L 234.347433 205.458144 
L 234.576591 208.353312 
L 235.264066 213.946176 
L 235.493224 214.678944 
L 235.722382 211.979616 
L 235.95154 216.92784 
L 236.180698 216.792384 
L 236.868172 217.910304 
L 237.097331 210.88128 
L 237.326489 210.594048 
L 237.555647 205.799232 
L 237.784805 204.85104 
L 238.472279 205.285152 
L 238.930595 198.68208 
L 239.159754 200.364672 
L 239.388912 202.894272 
L 240.076386 194.019456 
L 240.305544 196.761216 
L 240.534702 195.494784 
L 240.76386 192.397248 
L 240.993018 195.158592 
L 241.680493 199.795104 
L 242.138809 195.951744 
L 242.367967 192.149184 
L 242.597125 190.824 
L 243.2846 191.969664 
L 243.513758 195.22224 
L 243.742916 193.653888 
L 243.972074 188.529408 
L 244.888706 188.175264 
L 245.117864 190.9872 
L 245.805339 186.40128 
L 246.492813 192.473952 
L 246.721971 189.586944 
L 246.951129 190.65264 
L 247.180287 189.286656 
L 247.409446 186.951264 
L 248.326078 188.757888 
L 248.555236 185.741952 
L 248.784394 185.877408 
L 249.013552 185.108736 
L 249.701027 180.258432 
L 249.930185 180.81984 
L 250.159343 178.252704 
L 250.388501 180.233952 
L 250.617659 176.669664 
L 251.305133 179.932032 
L 251.534292 180.07728 
L 251.76345 184.064256 
L 251.992608 182.570976 
L 252.221766 184.233984 
L 252.90924 179.855328 
L 253.138398 180.113184 
L 253.367556 180.873696 
L 253.596715 183.344544 
L 253.825873 183.5616 
L 254.742505 179.754144 
L 254.971663 182.572608 
L 255.429979 178.316352 
L 256.117454 174.443616 
L 256.346612 174.138432 
L 256.57577 176.256768 
L 256.804928 174.510528 
L 257.034086 174.897312 
L 257.721561 175.052352 
L 257.950719 174.515424 
L 258.179877 175.05072 
L 258.409035 174.113952 
L 258.638193 173.898528 
L 259.325667 177.568896 
L 259.554825 179.486496 
L 259.783984 179.692128 
L 260.013142 178.442016 
L 260.2423 177.975264 
L 260.929774 182.575872 
L 261.158932 182.23968 
L 261.38809 181.286592 
L 261.617248 178.133568 
L 261.846407 178.35552 
L 262.533881 176.996064 
L 262.763039 178.286976 
L 262.992197 177.632544 
L 263.221355 182.024256 
L 264.137988 181.648896 
L 264.367146 184.535904 
L 264.596304 184.775808 
L 264.825462 184.266624 
L 265.05462 184.845984 
L 265.971253 180.486912 
L 266.200411 176.106624 
L 266.429569 174.791232 
L 266.658727 174.849984 
L 267.575359 172.532544 
L 267.804517 172.615776 
L 268.033676 168.989472 
L 268.262834 168.504768 
L 268.950308 168.028224 
L 269.179466 168.446016 
L 269.408624 169.17552 
L 269.637782 167.2824 
L 269.86694 167.163264 
L 270.783573 164.19792 
L 271.012731 164.676096 
L 271.241889 165.596544 
L 271.471047 163.409664 
L 272.158522 163.96128 
L 272.38768 166.04208 
L 272.845996 163.042464 
L 273.762628 168.428064 
L 274.450103 163.917216 
L 274.679261 160.855584 
L 275.366735 160.946976 
L 275.595893 160.5504 
L 275.825051 160.530816 
L 276.054209 160.064064 
L 276.283368 160.398624 
L 276.970842 161.754816 
L 277.2 165.439872 
L 277.429158 165.9768 
L 277.658316 164.591232 
L 277.887474 162.44352 
L 278.804107 160.976352 
L 279.262423 157.916352 
L 279.491581 158.146464 
L 280.408214 156.530784 
L 280.637372 153.898368 
L 280.86653 154.432032 
L 281.095688 153.97344 
L 281.783162 154.567488 
L 282.01232 153.425088 
L 282.699795 157.877184 
L 283.387269 154.841664 
L 283.845585 155.804544 
L 284.074743 160.24848 
L 284.303901 161.005728 
L 284.991376 158.516928 
L 285.220534 156.189696 
L 285.449692 155.722944 
L 285.908008 153.452832 
L 286.595483 152.685792 
L 286.824641 153.175392 
L 287.053799 150.102336 
L 287.282957 149.361408 
L 287.512115 150.810624 
L 288.199589 149.141088 
L 288.657906 151.83552 
L 288.887064 149.957088 
L 289.116222 152.12928 
L 290.032854 154.771488 
L 290.262012 158.162784 
L 290.49117 154.330848 
L 290.720329 159.213792 
L 291.866119 157.5312 
L 292.095277 154.245984 
L 292.324435 153.81024 
L 293.01191 149.929344 
L 293.241068 149.940768 
L 293.470226 149.043168 
L 293.699384 150.882432 
L 294.616016 147.28224 
L 294.845175 147.115776 
L 295.074333 147.20064 
L 295.303491 149.63232 
L 295.532649 150.206784 
L 296.220123 147.781632 
L 296.449281 147.87792 
L 296.678439 147.065184 
L 297.136756 150.188832 
L 297.82423 149.513184 
L 298.053388 147.354048 
L 298.282546 147.292032 
L 298.511704 148.813056 
L 298.740862 147.824064 
L 299.428337 148.2696 
L 299.657495 150.115392 
L 299.886653 149.46096 
L 300.344969 147.753888 
L 301.032444 146.497248 
L 301.261602 147.505824 
L 301.49076 147.301824 
L 301.719918 149.439744 
L 301.949076 148.396896 
L 303.324025 144.478464 
L 304.240657 144.266304 
L 304.469815 144.52416 
L 304.698973 144.488256 
L 304.928131 146.33568 
L 306.073922 142.839936 
L 306.30308 142.738752 
L 306.761396 141.459264 
L 307.448871 141.132864 
L 307.678029 142.888896 
L 307.907187 141.345024 
L 308.136345 140.891328 
L 308.365503 142.919904 
L 309.282136 140.602464 
L 309.511294 142.591872 
L 309.96961 150.144768 
L 310.657084 149.325504 
L 310.886242 150.077856 
L 311.1154 149.208 
L 311.573717 153.064416 
L 312.261191 150.564192 
L 312.490349 148.258176 
L 312.719507 149.243904 
L 312.948665 154.820448 
L 313.177823 154.317792 
L 313.865298 155.860032 
L 314.094456 153.611136 
L 314.323614 154.001184 
L 314.552772 152.313696 
L 314.78193 152.796768 
L 316.386037 147.303456 
L 317.073511 147.492768 
L 317.302669 149.68128 
L 317.531828 147.944832 
L 317.760986 148.320192 
L 317.990144 148.067232 
L 318.906776 145.811808 
L 319.135934 145.733472 
L 319.365092 145.051296 
L 319.594251 142.48416 
L 320.281725 142.5168 
L 320.510883 142.19856 
L 320.969199 140.600832 
L 321.198357 140.641632 
L 321.885832 140.556768 
L 322.344148 137.994528 
L 322.573306 138.056544 
L 322.802464 139.02432 
L 323.489938 138.059808 
L 323.719097 136.695456 
L 323.948255 137.748096 
L 324.177413 138.072864 
L 324.406571 137.932512 
L 325.094045 136.850496 
L 325.323203 136.842336 
L 325.552361 137.469024 
L 325.78152 136.05408 
L 326.92731 134.203392 
L 327.156468 135.34416 
L 327.385626 134.692992 
L 327.614784 133.398816 
L 328.531417 132.92064 
L 328.760575 130.74192 
L 328.989733 130.575456 
L 329.218891 133.764384 
L 329.906366 132.884736 
L 330.135524 131.309856 
L 330.364682 131.510592 
L 330.59384 131.065056 
L 330.822998 129.659904 
L 331.510472 130.51344 
L 331.73963 135.138528 
L 331.968789 133.890048 
L 332.197947 131.373504 
L 332.427105 134.652192 
L 333.114579 132.111168 
L 333.343737 136.78848 
L 333.572895 138.050016 
L 333.802053 144.20592 
L 334.031211 147.024384 
L 334.718686 139.052064 
L 334.947844 139.695072 
L 335.177002 137.103456 
L 335.40616 139.425792 
L 335.635318 142.977024 
L 336.322793 142.771392 
L 336.551951 145.40544 
L 336.781109 146.34384 
L 337.010267 153.436512 
L 337.239425 150.808992 
L 337.926899 153.10032 
L 338.156057 153.038304 
L 338.385216 154.03056 
L 338.614374 148.300608 
L 338.843532 150.528288 
L 339.760164 153.580128 
L 339.989322 149.064384 
L 340.21848 148.338144 
L 340.447639 154.531584 
L 341.135113 156.883296 
L 341.364271 155.0016 
L 341.593429 156.031392 
L 341.822587 150.947712 
L 342.051745 150.17088 
L 342.73922 150.492384 
L 342.968378 146.314464 
L 343.197536 146.415648 
L 343.655852 145.942368 
L 344.343326 146.64576 
L 344.572485 149.565408 
L 344.801643 150.099072 
L 345.030801 153.093792 
L 345.259959 152.592768 
L 345.947433 152.950176 
L 346.176591 158.389632 
L 346.405749 160.108128 
L 346.864066 161.434944 
L 347.780698 160.540608 
L 348.009856 155.283936 
L 348.468172 152.396928 
L 349.155647 152.268 
L 349.384805 149.560512 
L 349.613963 149.588256 
L 349.843121 149.374464 
L 350.072279 154.531584 
L 350.759754 153.492 
L 350.988912 151.496064 
L 351.21807 153.762912 
L 351.447228 149.833056 
L 351.676386 148.365888 
L 352.36386 146.350368 
L 352.593018 146.541312 
L 353.051335 148.550304 
L 353.280493 148.53888 
L 353.967967 144.579648 
L 354.197125 145.460928 
L 354.426283 144.354432 
L 354.655441 144.587808 
L 354.8846 145.268352 
L 355.572074 144.264672 
L 355.801232 145.363008 
L 356.03039 150.518496 
L 356.488706 152.1864 
L 357.176181 152.165184 
L 357.405339 150.017472 
L 357.634497 149.753088 
L 357.863655 152.777184 
L 358.092813 153.420192 
L 358.780287 154.126848 
L 359.009446 156.654816 
L 359.238604 156.090144 
L 359.467762 157.413696 
L 359.69692 154.578912 
L 360.384394 157.136256 
L 360.613552 157.069344 
L 360.84271 152.016672 
L 361.301027 148.063968 
L 362.217659 150.131712 
L 362.905133 147.24144 
L 363.592608 145.22592 
L 363.821766 145.35648 
L 364.050924 144.708576 
L 364.280082 144.775488 
L 364.50924 144.623712 
L 365.196715 141.829728 
L 365.425873 142.307904 
L 365.655031 143.205504 
L 365.884189 144.747744 
L 366.113347 140.857056 
L 366.800821 141.919488 
L 367.029979 141.01536 
L 367.488296 142.07616 
L 367.717454 141.253632 
L 368.404928 142.756704 
L 368.634086 138.8856 
L 368.863244 139.012896 
L 369.092402 139.324608 
L 369.321561 138.16752 
L 370.009035 138.139776 
L 370.238193 137.413536 
L 370.467351 136.05408 
L 370.696509 136.754208 
L 370.925667 136.365792 
L 371.613142 134.975328 
L 371.8423 138.04512 
L 372.071458 136.042656 
L 372.529774 135.241344 
L 373.217248 134.826816 
L 373.446407 134.823552 
L 373.675565 135.34416 
L 373.904723 135.127104 
L 374.133881 135.211968 
L 374.821355 135.029184 
L 375.050513 133.529376 
L 375.279671 132.812928 
L 375.50883 129.043008 
L 375.737988 128.26128 
L 376.425462 128.6856 
L 376.65462 130.29312 
L 376.883778 129.426528 
L 377.112936 130.270272 
L 377.342094 132.608928 
L 378.029569 132.8472 
L 378.258727 136.014912 
L 378.487885 135.974112 
L 378.717043 133.020192 
L 378.946201 132.524064 
L 379.633676 132.832512 
L 379.862834 135.624864 
L 380.091992 132.74928 
L 380.550308 134.20992 
L 381.237782 134.477568 
L 381.46694 135.65424 
L 381.925257 128.966304 
L 382.154415 128.447328 
L 382.841889 128.706816 
L 383.071047 128.604 
L 383.529363 127.0944 
L 383.758522 125.88672 
L 384.445996 125.876928 
L 384.675154 125.692512 
L 384.904312 126.730464 
L 385.13347 125.483616 
L 386.050103 124.796544 
L 386.508419 122.877312 
L 386.737577 123.215136 
L 387.654209 123.089472 
L 388.112526 122.723904 
L 388.341684 123.033984 
L 388.570842 123.073152 
L 389.258316 120.750816 
L 389.258316 120.750816 
" style="fill:none;stroke:#000000;stroke-linecap:square;stroke-width:1.5;"/>
   </g>
   <g id="patch_3">
    <path d="M 54 230.4 
L 54 34.56 
" style="fill:none;stroke:#000000;stroke-linecap:square;stroke-linejoin:miter;stroke-width:0.8;"/>
   </g>
   <g id="patch_4">
    <path d="M 388.8 230.4 
L 388.8 34.56 
" style="fill:none;stroke:#000000;stroke-linecap:square;stroke-linejoin:miter;stroke-width:0.8;"/>
   </g>
   <g id="patch_5">
    <path d="M 54 230.4 
L 388.8 230.4 
" style="fill:none;stroke:#000000;stroke-linecap:square;stroke-linejoin:miter;stroke-width:0.8;"/>
   </g>
   <g id="patch_6">
    <path d="M 54 34.56 
L 388.8 34.56 
" style="fill:none;stroke:#000000;stroke-linecap:square;stroke-linejoin:miter;stroke-width:0.8;"/>
   </g>
   <g id="patch_7">
    <path d="M 119.851745 49.596811 
Q 119.851745 53.999569 119.851745 58.402327 
L 120.851745 58.402327 
Q 119.851745 60.401308 118.851745 62.400288 
Q 117.851745 60.401308 116.851745 58.402327 
L 117.851745 58.402327 
Q 117.851745 53.999569 117.851745 49.596811 
L 119.851745 49.596811 
z
" style="stroke:#000000;stroke-linecap:round;"/>
   </g>
   <g id="text_17">
    <!-- Peak of bull market -->
    <defs>
     <path d="M 19.671875 64.796875 
L 19.671875 37.40625 
L 32.078125 37.40625 
Q 38.96875 37.40625 42.71875 40.96875 
Q 46.484375 44.53125 46.484375 51.125 
Q 46.484375 57.671875 42.71875 61.234375 
Q 38.96875 64.796875 32.078125 64.796875 
z
M 9.8125 72.90625 
L 32.078125 72.90625 
Q 44.34375 72.90625 50.609375 67.359375 
Q 56.890625 61.8125 56.890625 51.125 
Q 56.890625 40.328125 50.609375 34.8125 
Q 44.34375 29.296875 32.078125 29.296875 
L 19.671875 29.296875 
L 19.671875 0 
L 9.8125 0 
z
" id="DejaVuSans-80"/>
     <path d="M 56.203125 29.59375 
L 56.203125 25.203125 
L 14.890625 25.203125 
Q 15.484375 15.921875 20.484375 11.0625 
Q 25.484375 6.203125 34.421875 6.203125 
Q 39.59375 6.203125 44.453125 7.46875 
Q 49.3125 8.734375 54.109375 11.28125 
L 54.109375 2.78125 
Q 49.265625 0.734375 44.1875 -0.34375 
Q 39.109375 -1.421875 33.890625 -1.421875 
Q 20.796875 -1.421875 13.15625 6.1875 
Q 5.515625 13.8125 5.515625 26.8125 
Q 5.515625 40.234375 12.765625 48.109375 
Q 20.015625 56 32.328125 56 
Q 43.359375 56 49.78125 48.890625 
Q 56.203125 41.796875 56.203125 29.59375 
z
M 47.21875 32.234375 
Q 47.125 39.59375 43.09375 43.984375 
Q 39.0625 48.390625 32.421875 48.390625 
Q 24.90625 48.390625 20.390625 44.140625 
Q 15.875 39.890625 15.1875 32.171875 
z
" id="DejaVuSans-101"/>
     <path d="M 34.28125 27.484375 
Q 23.390625 27.484375 19.1875 25 
Q 14.984375 22.515625 14.984375 16.5 
Q 14.984375 11.71875 18.140625 8.90625 
Q 21.296875 6.109375 26.703125 6.109375 
Q 34.1875 6.109375 38.703125 11.40625 
Q 43.21875 16.703125 43.21875 25.484375 
L 43.21875 27.484375 
z
M 52.203125 31.203125 
L 52.203125 0 
L 43.21875 0 
L 43.21875 8.296875 
Q 40.140625 3.328125 35.546875 0.953125 
Q 30.953125 -1.421875 24.3125 -1.421875 
Q 15.921875 -1.421875 10.953125 3.296875 
Q 6 8.015625 6 15.921875 
Q 6 25.140625 12.171875 29.828125 
Q 18.359375 34.515625 30.609375 34.515625 
L 43.21875 34.515625 
L 43.21875 35.40625 
Q 43.21875 41.609375 39.140625 45 
Q 35.0625 48.390625 27.6875 48.390625 
Q 23 48.390625 18.546875 47.265625 
Q 14.109375 46.140625 10.015625 43.890625 
L 10.015625 52.203125 
Q 14.9375 54.109375 19.578125 55.046875 
Q 24.21875 56 28.609375 56 
Q 40.484375 56 46.34375 49.84375 
Q 52.203125 43.703125 52.203125 31.203125 
z
" id="DejaVuSans-97"/>
     <path d="M 9.078125 75.984375 
L 18.109375 75.984375 
L 18.109375 31.109375 
L 44.921875 54.6875 
L 56.390625 54.6875 
L 27.390625 29.109375 
L 57.625 0 
L 45.90625 0 
L 18.109375 26.703125 
L 18.109375 0 
L 9.078125 0 
z
" id="DejaVuSans-107"/>
     <path id="DejaVuSans-32"/>
     <path d="M 30.609375 48.390625 
Q 23.390625 48.390625 19.1875 42.75 
Q 14.984375 37.109375 14.984375 27.296875 
Q 14.984375 17.484375 19.15625 11.84375 
Q 23.34375 6.203125 30.609375 6.203125 
Q 37.796875 6.203125 41.984375 11.859375 
Q 46.1875 17.53125 46.1875 27.296875 
Q 46.1875 37.015625 41.984375 42.703125 
Q 37.796875 48.390625 30.609375 48.390625 
z
M 30.609375 56 
Q 42.328125 56 49.015625 48.375 
Q 55.71875 40.765625 55.71875 27.296875 
Q 55.71875 13.875 49.015625 6.21875 
Q 42.328125 -1.421875 30.609375 -1.421875 
Q 18.84375 -1.421875 12.171875 6.21875 
Q 5.515625 13.875 5.515625 27.296875 
Q 5.515625 40.765625 12.171875 48.375 
Q 18.84375 56 30.609375 56 
z
" id="DejaVuSans-111"/>
     <path d="M 37.109375 75.984375 
L 37.109375 68.5 
L 28.515625 68.5 
Q 23.6875 68.5 21.796875 66.546875 
Q 19.921875 64.59375 19.921875 59.515625 
L 19.921875 54.6875 
L 34.71875 54.6875 
L 34.71875 47.703125 
L 19.921875 47.703125 
L 19.921875 0 
L 10.890625 0 
L 10.890625 47.703125 
L 2.296875 47.703125 
L 2.296875 54.6875 
L 10.890625 54.6875 
L 10.890625 58.5 
Q 10.890625 67.625 15.140625 71.796875 
Q 19.390625 75.984375 28.609375 75.984375 
z
" id="DejaVuSans-102"/>
     <path d="M 48.6875 27.296875 
Q 48.6875 37.203125 44.609375 42.84375 
Q 40.53125 48.484375 33.40625 48.484375 
Q 26.265625 48.484375 22.1875 42.84375 
Q 18.109375 37.203125 18.109375 27.296875 
Q 18.109375 17.390625 22.1875 11.75 
Q 26.265625 6.109375 33.40625 6.109375 
Q 40.53125 6.109375 44.609375 11.75 
Q 48.6875 17.390625 48.6875 27.296875 
z
M 18.109375 46.390625 
Q 20.953125 51.265625 25.265625 53.625 
Q 29.59375 56 35.59375 56 
Q 45.5625 56 51.78125 48.09375 
Q 58.015625 40.1875 58.015625 27.296875 
Q 58.015625 14.40625 51.78125 6.484375 
Q 45.5625 -1.421875 35.59375 -1.421875 
Q 29.59375 -1.421875 25.265625 0.953125 
Q 20.953125 3.328125 18.109375 8.203125 
L 18.109375 0 
L 9.078125 0 
L 9.078125 75.984375 
L 18.109375 75.984375 
z
" id="DejaVuSans-98"/>
     <path d="M 8.5 21.578125 
L 8.5 54.6875 
L 17.484375 54.6875 
L 17.484375 21.921875 
Q 17.484375 14.15625 20.5 10.265625 
Q 23.53125 6.390625 29.59375 6.390625 
Q 36.859375 6.390625 41.078125 11.03125 
Q 45.3125 15.671875 45.3125 23.6875 
L 45.3125 54.6875 
L 54.296875 54.6875 
L 54.296875 0 
L 45.3125 0 
L 45.3125 8.40625 
Q 42.046875 3.421875 37.71875 1 
Q 33.40625 -1.421875 27.6875 -1.421875 
Q 18.265625 -1.421875 13.375 4.4375 
Q 8.5 10.296875 8.5 21.578125 
z
M 31.109375 56 
z
" id="DejaVuSans-117"/>
     <path d="M 9.421875 75.984375 
L 18.40625 75.984375 
L 18.40625 0 
L 9.421875 0 
z
" id="DejaVuSans-108"/>
     <path d="M 52 44.1875 
Q 55.375 50.25 60.0625 53.125 
Q 64.75 56 71.09375 56 
Q 79.640625 56 84.28125 50.015625 
Q 88.921875 44.046875 88.921875 33.015625 
L 88.921875 0 
L 79.890625 0 
L 79.890625 32.71875 
Q 79.890625 40.578125 77.09375 44.375 
Q 74.3125 48.1875 68.609375 48.1875 
Q 61.625 48.1875 57.5625 43.546875 
Q 53.515625 38.921875 53.515625 30.90625 
L 53.515625 0 
L 44.484375 0 
L 44.484375 32.71875 
Q 44.484375 40.625 41.703125 44.40625 
Q 38.921875 48.1875 33.109375 48.1875 
Q 26.21875 48.1875 22.15625 43.53125 
Q 18.109375 38.875 18.109375 30.90625 
L 18.109375 0 
L 9.078125 0 
L 9.078125 54.6875 
L 18.109375 54.6875 
L 18.109375 46.1875 
Q 21.1875 51.21875 25.484375 53.609375 
Q 29.78125 56 35.6875 56 
Q 41.65625 56 45.828125 52.96875 
Q 50 49.953125 52 44.1875 
z
" id="DejaVuSans-109"/>
     <path d="M 41.109375 46.296875 
Q 39.59375 47.171875 37.8125 47.578125 
Q 36.03125 48 33.890625 48 
Q 26.265625 48 22.1875 43.046875 
Q 18.109375 38.09375 18.109375 28.8125 
L 18.109375 0 
L 9.078125 0 
L 9.078125 54.6875 
L 18.109375 54.6875 
L 18.109375 46.1875 
Q 20.953125 51.171875 25.484375 53.578125 
Q 30.03125 56 36.53125 56 
Q 37.453125 56 38.578125 55.875 
Q 39.703125 55.765625 41.0625 55.515625 
z
" id="DejaVuSans-114"/>
     <path d="M 18.3125 70.21875 
L 18.3125 54.6875 
L 36.8125 54.6875 
L 36.8125 47.703125 
L 18.3125 47.703125 
L 18.3125 18.015625 
Q 18.3125 11.328125 20.140625 9.421875 
Q 21.96875 7.515625 27.59375 7.515625 
L 36.8125 7.515625 
L 36.8125 0 
L 27.59375 0 
Q 17.1875 0 13.234375 3.875 
Q 9.28125 7.765625 9.28125 18.015625 
L 9.28125 47.703125 
L 2.6875 47.703125 
L 2.6875 54.6875 
L 9.28125 54.6875 
L 9.28125 70.21875 
z
" id="DejaVuSans-116"/>
    </defs>
    <g transform="translate(118.851745 45.518725)scale(0.1 -0.1)">
     <use xlink:href="#DejaVuSans-80"/>
     <use x="56.677734" xlink:href="#DejaVuSans-101"/>
     <use x="118.201172" xlink:href="#DejaVuSans-97"/>
     <use x="179.480469" xlink:href="#DejaVuSans-107"/>
     <use x="237.390625" xlink:href="#DejaVuSans-32"/>
     <use x="269.177734" xlink:href="#DejaVuSans-111"/>
     <use x="330.359375" xlink:href="#DejaVuSans-102"/>
     <use x="365.564453" xlink:href="#DejaVuSans-32"/>
     <use x="397.351562" xlink:href="#DejaVuSans-98"/>
     <use x="460.828125" xlink:href="#DejaVuSans-117"/>
     <use x="524.207031" xlink:href="#DejaVuSans-108"/>
     <use x="551.990234" xlink:href="#DejaVuSans-108"/>
     <use x="579.773438" xlink:href="#DejaVuSans-32"/>
     <use x="611.560547" xlink:href="#DejaVuSans-109"/>
     <use x="708.972656" xlink:href="#DejaVuSans-97"/>
     <use x="770.251953" xlink:href="#DejaVuSans-114"/>
     <use x="811.365234" xlink:href="#DejaVuSans-107"/>
     <use x="865.650391" xlink:href="#DejaVuSans-101"/>
     <use x="927.173828" xlink:href="#DejaVuSans-116"/>
    </g>
   </g>
   <g id="patch_8">
    <path d="M 154.912936 89.685259 
Q 154.912936 94.088017 154.912936 98.490775 
L 155.912936 98.490775 
Q 154.912936 100.489756 153.912936 102.488736 
Q 152.912936 100.489756 151.912936 98.490775 
L 152.912936 98.490775 
Q 152.912936 94.088017 152.912936 89.685259 
L 154.912936 89.685259 
z
" style="stroke:#000000;stroke-linecap:round;"/>
   </g>
   <g id="text_18">
    <!-- Bear Stearns Fails -->
    <defs>
     <path d="M 19.671875 34.8125 
L 19.671875 8.109375 
L 35.5 8.109375 
Q 43.453125 8.109375 47.28125 11.40625 
Q 51.125 14.703125 51.125 21.484375 
Q 51.125 28.328125 47.28125 31.5625 
Q 43.453125 34.8125 35.5 34.8125 
z
M 19.671875 64.796875 
L 19.671875 42.828125 
L 34.28125 42.828125 
Q 41.5 42.828125 45.03125 45.53125 
Q 48.578125 48.25 48.578125 53.8125 
Q 48.578125 59.328125 45.03125 62.0625 
Q 41.5 64.796875 34.28125 64.796875 
z
M 9.8125 72.90625 
L 35.015625 72.90625 
Q 46.296875 72.90625 52.390625 68.21875 
Q 58.5 63.53125 58.5 54.890625 
Q 58.5 48.1875 55.375 44.234375 
Q 52.25 40.28125 46.1875 39.3125 
Q 53.46875 37.75 57.5 32.78125 
Q 61.53125 27.828125 61.53125 20.40625 
Q 61.53125 10.640625 54.890625 5.3125 
Q 48.25 0 35.984375 0 
L 9.8125 0 
z
" id="DejaVuSans-66"/>
     <path d="M 53.515625 70.515625 
L 53.515625 60.890625 
Q 47.90625 63.578125 42.921875 64.890625 
Q 37.9375 66.21875 33.296875 66.21875 
Q 25.25 66.21875 20.875 63.09375 
Q 16.5 59.96875 16.5 54.203125 
Q 16.5 49.359375 19.40625 46.890625 
Q 22.3125 44.4375 30.421875 42.921875 
L 36.375 41.703125 
Q 47.40625 39.59375 52.65625 34.296875 
Q 57.90625 29 57.90625 20.125 
Q 57.90625 9.515625 50.796875 4.046875 
Q 43.703125 -1.421875 29.984375 -1.421875 
Q 24.8125 -1.421875 18.96875 -0.25 
Q 13.140625 0.921875 6.890625 3.21875 
L 6.890625 13.375 
Q 12.890625 10.015625 18.65625 8.296875 
Q 24.421875 6.59375 29.984375 6.59375 
Q 38.421875 6.59375 43.015625 9.90625 
Q 47.609375 13.234375 47.609375 19.390625 
Q 47.609375 24.75 44.3125 27.78125 
Q 41.015625 30.8125 33.5 32.328125 
L 27.484375 33.5 
Q 16.453125 35.6875 11.515625 40.375 
Q 6.59375 45.0625 6.59375 53.421875 
Q 6.59375 63.09375 13.40625 68.65625 
Q 20.21875 74.21875 32.171875 74.21875 
Q 37.3125 74.21875 42.625 73.28125 
Q 47.953125 72.359375 53.515625 70.515625 
z
" id="DejaVuSans-83"/>
     <path d="M 54.890625 33.015625 
L 54.890625 0 
L 45.90625 0 
L 45.90625 32.71875 
Q 45.90625 40.484375 42.875 44.328125 
Q 39.84375 48.1875 33.796875 48.1875 
Q 26.515625 48.1875 22.3125 43.546875 
Q 18.109375 38.921875 18.109375 30.90625 
L 18.109375 0 
L 9.078125 0 
L 9.078125 54.6875 
L 18.109375 54.6875 
L 18.109375 46.1875 
Q 21.34375 51.125 25.703125 53.5625 
Q 30.078125 56 35.796875 56 
Q 45.21875 56 50.046875 50.171875 
Q 54.890625 44.34375 54.890625 33.015625 
z
" id="DejaVuSans-110"/>
     <path d="M 44.28125 53.078125 
L 44.28125 44.578125 
Q 40.484375 46.53125 36.375 47.5 
Q 32.28125 48.484375 27.875 48.484375 
Q 21.1875 48.484375 17.84375 46.4375 
Q 14.5 44.390625 14.5 40.28125 
Q 14.5 37.15625 16.890625 35.375 
Q 19.28125 33.59375 26.515625 31.984375 
L 29.59375 31.296875 
Q 39.15625 29.25 43.1875 25.515625 
Q 47.21875 21.78125 47.21875 15.09375 
Q 47.21875 7.46875 41.1875 3.015625 
Q 35.15625 -1.421875 24.609375 -1.421875 
Q 20.21875 -1.421875 15.453125 -0.5625 
Q 10.6875 0.296875 5.421875 2 
L 5.421875 11.28125 
Q 10.40625 8.6875 15.234375 7.390625 
Q 20.0625 6.109375 24.8125 6.109375 
Q 31.15625 6.109375 34.5625 8.28125 
Q 37.984375 10.453125 37.984375 14.40625 
Q 37.984375 18.0625 35.515625 20.015625 
Q 33.0625 21.96875 24.703125 23.78125 
L 21.578125 24.515625 
Q 13.234375 26.265625 9.515625 29.90625 
Q 5.8125 33.546875 5.8125 39.890625 
Q 5.8125 47.609375 11.28125 51.796875 
Q 16.75 56 26.8125 56 
Q 31.78125 56 36.171875 55.265625 
Q 40.578125 54.546875 44.28125 53.078125 
z
" id="DejaVuSans-115"/>
     <path d="M 9.8125 72.90625 
L 51.703125 72.90625 
L 51.703125 64.59375 
L 19.671875 64.59375 
L 19.671875 43.109375 
L 48.578125 43.109375 
L 48.578125 34.8125 
L 19.671875 34.8125 
L 19.671875 0 
L 9.8125 0 
z
" id="DejaVuSans-70"/>
     <path d="M 9.421875 54.6875 
L 18.40625 54.6875 
L 18.40625 0 
L 9.421875 0 
z
M 9.421875 75.984375 
L 18.40625 75.984375 
L 18.40625 64.59375 
L 9.421875 64.59375 
z
" id="DejaVuSans-105"/>
    </defs>
    <g transform="translate(153.912936 85.607173)scale(0.1 -0.1)">
     <use xlink:href="#DejaVuSans-66"/>
     <use x="68.603516" xlink:href="#DejaVuSans-101"/>
     <use x="130.126953" xlink:href="#DejaVuSans-97"/>
     <use x="191.40625" xlink:href="#DejaVuSans-114"/>
     <use x="232.519531" xlink:href="#DejaVuSans-32"/>
     <use x="264.306641" xlink:href="#DejaVuSans-83"/>
     <use x="327.783203" xlink:href="#DejaVuSans-116"/>
     <use x="366.992188" xlink:href="#DejaVuSans-101"/>
     <use x="428.515625" xlink:href="#DejaVuSans-97"/>
     <use x="489.794922" xlink:href="#DejaVuSans-114"/>
     <use x="529.158203" xlink:href="#DejaVuSans-110"/>
     <use x="592.537109" xlink:href="#DejaVuSans-115"/>
     <use x="644.636719" xlink:href="#DejaVuSans-32"/>
     <use x="676.423828" xlink:href="#DejaVuSans-70"/>
     <use x="724.818359" xlink:href="#DejaVuSans-97"/>
     <use x="786.097656" xlink:href="#DejaVuSans-105"/>
     <use x="813.880859" xlink:href="#DejaVuSans-108"/>
     <use x="841.664062" xlink:href="#DejaVuSans-115"/>
    </g>
   </g>
   <g id="patch_9">
    <path d="M 197.765503 108.627883 
Q 197.765503 113.030641 197.765503 117.433399 
L 198.765503 117.433399 
Q 197.765503 119.43238 196.765503 121.43136 
Q 195.765503 119.43238 194.765503 117.433399 
L 195.765503 117.433399 
Q 195.765503 113.030641 195.765503 108.627883 
L 197.765503 108.627883 
z
" style="stroke:#000000;stroke-linecap:round;"/>
   </g>
   <g id="text_19">
    <!-- Lehman Bankruptcy -->
    <defs>
     <path d="M 9.8125 72.90625 
L 19.671875 72.90625 
L 19.671875 8.296875 
L 55.171875 8.296875 
L 55.171875 0 
L 9.8125 0 
z
" id="DejaVuSans-76"/>
     <path d="M 54.890625 33.015625 
L 54.890625 0 
L 45.90625 0 
L 45.90625 32.71875 
Q 45.90625 40.484375 42.875 44.328125 
Q 39.84375 48.1875 33.796875 48.1875 
Q 26.515625 48.1875 22.3125 43.546875 
Q 18.109375 38.921875 18.109375 30.90625 
L 18.109375 0 
L 9.078125 0 
L 9.078125 75.984375 
L 18.109375 75.984375 
L 18.109375 46.1875 
Q 21.34375 51.125 25.703125 53.5625 
Q 30.078125 56 35.796875 56 
Q 45.21875 56 50.046875 50.171875 
Q 54.890625 44.34375 54.890625 33.015625 
z
" id="DejaVuSans-104"/>
     <path d="M 18.109375 8.203125 
L 18.109375 -20.796875 
L 9.078125 -20.796875 
L 9.078125 54.6875 
L 18.109375 54.6875 
L 18.109375 46.390625 
Q 20.953125 51.265625 25.265625 53.625 
Q 29.59375 56 35.59375 56 
Q 45.5625 56 51.78125 48.09375 
Q 58.015625 40.1875 58.015625 27.296875 
Q 58.015625 14.40625 51.78125 6.484375 
Q 45.5625 -1.421875 35.59375 -1.421875 
Q 29.59375 -1.421875 25.265625 0.953125 
Q 20.953125 3.328125 18.109375 8.203125 
z
M 48.6875 27.296875 
Q 48.6875 37.203125 44.609375 42.84375 
Q 40.53125 48.484375 33.40625 48.484375 
Q 26.265625 48.484375 22.1875 42.84375 
Q 18.109375 37.203125 18.109375 27.296875 
Q 18.109375 17.390625 22.1875 11.75 
Q 26.265625 6.109375 33.40625 6.109375 
Q 40.53125 6.109375 44.609375 11.75 
Q 48.6875 17.390625 48.6875 27.296875 
z
" id="DejaVuSans-112"/>
     <path d="M 48.78125 52.59375 
L 48.78125 44.1875 
Q 44.96875 46.296875 41.140625 47.34375 
Q 37.3125 48.390625 33.40625 48.390625 
Q 24.65625 48.390625 19.8125 42.84375 
Q 14.984375 37.3125 14.984375 27.296875 
Q 14.984375 17.28125 19.8125 11.734375 
Q 24.65625 6.203125 33.40625 6.203125 
Q 37.3125 6.203125 41.140625 7.25 
Q 44.96875 8.296875 48.78125 10.40625 
L 48.78125 2.09375 
Q 45.015625 0.34375 40.984375 -0.53125 
Q 36.96875 -1.421875 32.421875 -1.421875 
Q 20.0625 -1.421875 12.78125 6.34375 
Q 5.515625 14.109375 5.515625 27.296875 
Q 5.515625 40.671875 12.859375 48.328125 
Q 20.21875 56 33.015625 56 
Q 37.15625 56 41.109375 55.140625 
Q 45.0625 54.296875 48.78125 52.59375 
z
" id="DejaVuSans-99"/>
     <path d="M 32.171875 -5.078125 
Q 28.375 -14.84375 24.75 -17.8125 
Q 21.140625 -20.796875 15.09375 -20.796875 
L 7.90625 -20.796875 
L 7.90625 -13.28125 
L 13.1875 -13.28125 
Q 16.890625 -13.28125 18.9375 -11.515625 
Q 21 -9.765625 23.484375 -3.21875 
L 25.09375 0.875 
L 2.984375 54.6875 
L 12.5 54.6875 
L 29.59375 11.921875 
L 46.6875 54.6875 
L 56.203125 54.6875 
z
" id="DejaVuSans-121"/>
    </defs>
    <g transform="translate(196.765503 104.549797)scale(0.1 -0.1)">
     <use xlink:href="#DejaVuSans-76"/>
     <use x="53.962891" xlink:href="#DejaVuSans-101"/>
     <use x="115.486328" xlink:href="#DejaVuSans-104"/>
     <use x="178.865234" xlink:href="#DejaVuSans-109"/>
     <use x="276.277344" xlink:href="#DejaVuSans-97"/>
     <use x="337.556641" xlink:href="#DejaVuSans-110"/>
     <use x="400.935547" xlink:href="#DejaVuSans-32"/>
     <use x="432.722656" xlink:href="#DejaVuSans-66"/>
     <use x="501.326172" xlink:href="#DejaVuSans-97"/>
     <use x="562.605469" xlink:href="#DejaVuSans-110"/>
     <use x="625.984375" xlink:href="#DejaVuSans-107"/>
     <use x="683.894531" xlink:href="#DejaVuSans-114"/>
     <use x="725.007812" xlink:href="#DejaVuSans-117"/>
     <use x="788.386719" xlink:href="#DejaVuSans-112"/>
     <use x="851.863281" xlink:href="#DejaVuSans-116"/>
     <use x="891.072266" xlink:href="#DejaVuSans-99"/>
     <use x="946.052734" xlink:href="#DejaVuSans-121"/>
    </g>
   </g>
   <g id="text_20">
    <!-- Important dates in the 2008-2009 financial crisis -->
    <defs>
     <path d="M 9.8125 72.90625 
L 19.671875 72.90625 
L 19.671875 0 
L 9.8125 0 
z
" id="DejaVuSans-73"/>
     <path d="M 45.40625 46.390625 
L 45.40625 75.984375 
L 54.390625 75.984375 
L 54.390625 0 
L 45.40625 0 
L 45.40625 8.203125 
Q 42.578125 3.328125 38.25 0.953125 
Q 33.9375 -1.421875 27.875 -1.421875 
Q 17.96875 -1.421875 11.734375 6.484375 
Q 5.515625 14.40625 5.515625 27.296875 
Q 5.515625 40.1875 11.734375 48.09375 
Q 17.96875 56 27.875 56 
Q 33.9375 56 38.25 53.625 
Q 42.578125 51.265625 45.40625 46.390625 
z
M 14.796875 27.296875 
Q 14.796875 17.390625 18.875 11.75 
Q 22.953125 6.109375 30.078125 6.109375 
Q 37.203125 6.109375 41.296875 11.75 
Q 45.40625 17.390625 45.40625 27.296875 
Q 45.40625 37.203125 41.296875 42.84375 
Q 37.203125 48.484375 30.078125 48.484375 
Q 22.953125 48.484375 18.875 42.84375 
Q 14.796875 37.203125 14.796875 27.296875 
z
" id="DejaVuSans-100"/>
    </defs>
    <g transform="translate(74.81625 28.56)scale(0.12 -0.12)">
     <use xlink:href="#DejaVuSans-73"/>
     <use x="29.492188" xlink:href="#DejaVuSans-109"/>
     <use x="126.904297" xlink:href="#DejaVuSans-112"/>
     <use x="190.380859" xlink:href="#DejaVuSans-111"/>
     <use x="251.5625" xlink:href="#DejaVuSans-114"/>
     <use x="292.675781" xlink:href="#DejaVuSans-116"/>
     <use x="331.884766" xlink:href="#DejaVuSans-97"/>
     <use x="393.164062" xlink:href="#DejaVuSans-110"/>
     <use x="456.542969" xlink:href="#DejaVuSans-116"/>
     <use x="495.751953" xlink:href="#DejaVuSans-32"/>
     <use x="527.539062" xlink:href="#DejaVuSans-100"/>
     <use x="591.015625" xlink:href="#DejaVuSans-97"/>
     <use x="652.294922" xlink:href="#DejaVuSans-116"/>
     <use x="691.503906" xlink:href="#DejaVuSans-101"/>
     <use x="753.027344" xlink:href="#DejaVuSans-115"/>
     <use x="805.126953" xlink:href="#DejaVuSans-32"/>
     <use x="836.914062" xlink:href="#DejaVuSans-105"/>
     <use x="864.697266" xlink:href="#DejaVuSans-110"/>
     <use x="928.076172" xlink:href="#DejaVuSans-32"/>
     <use x="959.863281" xlink:href="#DejaVuSans-116"/>
     <use x="999.072266" xlink:href="#DejaVuSans-104"/>
     <use x="1062.451172" xlink:href="#DejaVuSans-101"/>
     <use x="1123.974609" xlink:href="#DejaVuSans-32"/>
     <use x="1155.761719" xlink:href="#DejaVuSans-50"/>
     <use x="1219.384766" xlink:href="#DejaVuSans-48"/>
     <use x="1283.007812" xlink:href="#DejaVuSans-48"/>
     <use x="1346.630859" xlink:href="#DejaVuSans-56"/>
     <use x="1410.253906" xlink:href="#DejaVuSans-45"/>
     <use x="1446.337891" xlink:href="#DejaVuSans-50"/>
     <use x="1509.960938" xlink:href="#DejaVuSans-48"/>
     <use x="1573.583984" xlink:href="#DejaVuSans-48"/>
     <use x="1637.207031" xlink:href="#DejaVuSans-57"/>
     <use x="1700.830078" xlink:href="#DejaVuSans-32"/>
     <use x="1732.617188" xlink:href="#DejaVuSans-102"/>
     <use x="1767.822266" xlink:href="#DejaVuSans-105"/>
     <use x="1795.605469" xlink:href="#DejaVuSans-110"/>
     <use x="1858.984375" xlink:href="#DejaVuSans-97"/>
     <use x="1920.263672" xlink:href="#DejaVuSans-110"/>
     <use x="1983.642578" xlink:href="#DejaVuSans-99"/>
     <use x="2038.623047" xlink:href="#DejaVuSans-105"/>
     <use x="2066.40625" xlink:href="#DejaVuSans-97"/>
     <use x="2127.685547" xlink:href="#DejaVuSans-108"/>
     <use x="2155.46875" xlink:href="#DejaVuSans-32"/>
     <use x="2187.255859" xlink:href="#DejaVuSans-99"/>
     <use x="2242.236328" xlink:href="#DejaVuSans-114"/>
     <use x="2283.349609" xlink:href="#DejaVuSans-105"/>
     <use x="2311.132812" xlink:href="#DejaVuSans-115"/>
     <use x="2363.232422" xlink:href="#DejaVuSans-105"/>
     <use x="2391.015625" xlink:href="#DejaVuSans-115"/>
    </g>
   </g>
  </g>
 </g>
 <defs>
  <clipPath id="p8f1dea702e">
   <rect height="195.84" width="334.8" x="54" y="34.56"/>
  </clipPath>
 </defs>
</svg>
